ffmpeg version 4.4.2-0ubuntu0.22.04.1 Copyright (c) 2000-2021 the FFmpeg developers
  built with gcc 11 (Ubuntu 11.2.0-19ubuntu1)
  configuration: --prefix=/usr --extra-version=0ubuntu0.22.04.1 --toolchain=hardened --libdir=/usr/lib/x86_64-linux-gnu --incdir=/usr/include/x86_64-linux-gnu --arch=amd64 --enable-gpl --disable-stripping --enable-gnutls --enable-ladspa --enable-libaom --enable-libass --enable-libbluray --enable-libbs2b --enable-libcaca --enable-libcdio --enable-libcodec2 --enable-libdav1d --enable-libflite --enable-libfontconfig --enable-libfreetype --enable-libfribidi --enable-libgme --enable-libgsm --enable-libjack --enable-libmp3lame --enable-libmysofa --enable-libopenjpeg --enable-libopenmpt --enable-libopus --enable-libpulse --enable-librabbitmq --enable-librubberband --enable-libshine --enable-libsnappy --enable-libsoxr --enable-libspeex --enable-libsrt --enable-libssh --enable-libtheora --enable-libtwolame --enable-libvidstab --enable-libvorbis --enable-libvpx --enable-libwebp --enable-libx265 --enable-libxml2 --enable-libxvid --enable-libzimg --enable-libzmq --enable-libzvbi --enable-lv2 --enable-omx --enable-openal --enable-opencl --enable-opengl --enable-sdl2 --enable-pocketsphinx --enable-librsvg --enable-libmfx --enable-libdc1394 --enable-libdrm --enable-libiec61883 --enable-chromaprint --enable-frei0r --enable-libx264 --enable-shared
  libavutil      56. 70.100 / 56. 70.100
  libavcodec     58.134.100 / 58.134.100
  libavformat    58. 76.100 / 58. 76.100
  libavdevice    58. 13.100 / 58. 13.100
  libavfilter     7.110.100 /  7.110.100
  libswscale      5.  9.100 /  5.  9.100
  libswresample   3.  9.100 /  3.  9.100
  libpostproc    55.  9.100 / 55.  9.100
Input #0, flv, from '/storage/32426326/20250608/32426326-20250608-154200-159.flv':
  Metadata:
    audiochannels   : 2
    4.1             : false
    displayWidth    : 1920
    2.1             : false
    fps             : 60
    displayHeight   : 1080
    5.1             : false
    4.0             : false
    fileSize        : 0
    encoder         : obs-output module (libobs version 31.0.2)
    7.1             : false
    cdn_ip          : 192.168.252.4
    3.1             : false
    Title           : 技术主播没有GG
    Artist          : 蓝音BuBuLine (32426326)
    Comment         : mikufans直播间 32426326 的直播录像
                    : 主播名: 蓝音BuBuLine
                    : 直播标题: 技术主播没有GG
                    : 直播分区: 单机游戏·主机游戏
                    : 录制时间: 2025-06-08T15:42:00.1674018+00:00
                    : 直播服务器:
                    : d1--ov-gotcha07b.bilivideo.com [156.59.188.244]
                    : 
                    : 使用 mikufans录播姬 录制 https://rec.danmuji.org
                    : 录播姬版本: 2.11.0
    RecordedBy      : BililiveRecorder mikufans录播姬
    RecordedFrom    : d1--ov-gotcha07b.bilivideo.com
    StreamServers   : d1--ov-gotcha07b.bilivideo.com [156.59.188.244]
    RecorderVersion : 2.11.0+Branch.tags-v2.11.0.Sha.d32ebb97483b1ae77acfc6dbcfef17bd64913ccd
    StartTime       : Sun, 08 Jun 2025 15:42:00 +0000
    RoomId          : 32426326
    ShortId         : 0
    Name            : 蓝音BuBuLine
    StreamTitle     : 技术主播没有GG
    AreaNameParent  : 单机游戏
    AreaNameChild   : 主机游戏
  Duration: 06:04:30.04, start: 0.004000, bitrate: 7690 kb/s
  Stream #0:0: Video: h264 (High), yuv420p(tv, bt709, progressive), 1920x1080 [SAR 1:1 DAR 16:9], 8192 kb/s, 60 fps, 240 tbr, 1k tbn, 120 tbc
  Stream #0:1: Audio: aac (LC), 48000 Hz, stereo, fltp, 131 kb/s
Stream mapping:
  Stream #0:0 -> #0:0 (h264 (native) -> png (native))
Press [q] to stop, [?] for help
Output #0, image2, to '/storage/32426326/20250608/32426326-20250608-154200-159.all.thumb.png':
  Metadata:
    audiochannels   : 2
    4.1             : false
    displayWidth    : 1920
    2.1             : false
    fps             : 60
    displayHeight   : 1080
    5.1             : false
    4.0             : false
    fileSize        : 0
    AreaNameChild   : 主机游戏
    7.1             : false
    cdn_ip          : 192.168.252.4
    3.1             : false
    Title           : 技术主播没有GG
    Artist          : 蓝音BuBuLine (32426326)
    Comment         : mikufans直播间 32426326 的直播录像
                    : 主播名: 蓝音BuBuLine
                    : 直播标题: 技术主播没有GG
                    : 直播分区: 单机游戏·主机游戏
                    : 录制时间: 2025-06-08T15:42:00.1674018+00:00
                    : 直播服务器:
                    : d1--ov-gotcha07b.bilivideo.com [156.59.188.244]
                    : 
                    : 使用 mikufans录播姬 录制 https://rec.danmuji.org
                    : 录播姬版本: 2.11.0
    RecordedBy      : BililiveRecorder mikufans录播姬
    RecordedFrom    : d1--ov-gotcha07b.bilivideo.com
    StreamServers   : d1--ov-gotcha07b.bilivideo.com [156.59.188.244]
    RecorderVersion : 2.11.0+Branch.tags-v2.11.0.Sha.d32ebb97483b1ae77acfc6dbcfef17bd64913ccd
    StartTime       : Sun, 08 Jun 2025 15:42:00 +0000
    RoomId          : 32426326
    ShortId         : 0
    Name            : 蓝音BuBuLine
    StreamTitle     : 技术主播没有GG
    AreaNameParent  : 单机游戏
    encoder         : Lavf58.76.100
  Stream #0:0: Video: png, rgb24(pc, gbr/bt709/bt709, progressive), 1920x1080 [SAR 1:1 DAR 16:9], q=2-31, 200 kb/s, 60 fps, 60 tbn
    Metadata:
      encoder         : Lavc58.134.100 png
frame=    1 fps=0.0 q=0.0 size=N/A time=00:00:00.00 bitrate=N/A speed=   0x    frame=    1 fps=0.0 q=-0.0 Lsize=N/A time=00:00:00.01 bitrate=N/A speed=0.0489x    
video:2557kB audio:0kB subtitle:0kB other streams:0kB global headers:0kB muxing overhead: unknown
ffmpeg version 4.4.2-0ubuntu0.22.04.1 Copyright (c) 2000-2021 the FFmpeg developers
  built with gcc 11 (Ubuntu 11.2.0-19ubuntu1)
  configuration: --prefix=/usr --extra-version=0ubuntu0.22.04.1 --toolchain=hardened --libdir=/usr/lib/x86_64-linux-gnu --incdir=/usr/include/x86_64-linux-gnu --arch=amd64 --enable-gpl --disable-stripping --enable-gnutls --enable-ladspa --enable-libaom --enable-libass --enable-libbluray --enable-libbs2b --enable-libcaca --enable-libcdio --enable-libcodec2 --enable-libdav1d --enable-libflite --enable-libfontconfig --enable-libfreetype --enable-libfribidi --enable-libgme --enable-libgsm --enable-libjack --enable-libmp3lame --enable-libmysofa --enable-libopenjpeg --enable-libopenmpt --enable-libopus --enable-libpulse --enable-librabbitmq --enable-librubberband --enable-libshine --enable-libsnappy --enable-libsoxr --enable-libspeex --enable-libsrt --enable-libssh --enable-libtheora --enable-libtwolame --enable-libvidstab --enable-libvorbis --enable-libvpx --enable-libwebp --enable-libx265 --enable-libxml2 --enable-libxvid --enable-libzimg --enable-libzmq --enable-libzvbi --enable-lv2 --enable-omx --enable-openal --enable-opencl --enable-opengl --enable-sdl2 --enable-pocketsphinx --enable-librsvg --enable-libmfx --enable-libdc1394 --enable-libdrm --enable-libiec61883 --enable-chromaprint --enable-frei0r --enable-libx264 --enable-shared
  libavutil      56. 70.100 / 56. 70.100
  libavcodec     58.134.100 / 58.134.100
  libavformat    58. 76.100 / 58. 76.100
  libavdevice    58. 13.100 / 58. 13.100
  libavfilter     7.110.100 /  7.110.100
  libswscale      5.  9.100 /  5.  9.100
  libswresample   3.  9.100 /  3.  9.100
  libpostproc    55.  9.100 / 55.  9.100
[flv @ 0x55c16a93dfc0] Auto-inserting h264_mp4toannexb bitstream filter
Input #0, concat, from '/storage/32426326/20250608/32426326-20250608-154200-159.all.concat.txt':
  Duration: N/A, start: 0.000000, bitrate: 8323 kb/s
  Stream #0:0: Video: h264 (High), yuv420p(tv, bt709, progressive), 1920x1080 [SAR 1:1 DAR 16:9], 8192 kb/s, 60 fps, 240 tbr, 1k tbn, 120 tbc
  Stream #0:1: Audio: aac (LC), 48000 Hz, stereo, fltp, 131 kb/s
Output #0, flv, to '/storage/32426326/20250608/32426326-20250608-154200-159.all.flv':
  Metadata:
    encoder         : Lavf58.76.100
  Stream #0:0: Video: h264 (High) ([7][0][0][0] / 0x0007), yuv420p(tv, bt709, progressive), 1920x1080 [SAR 1:1 DAR 16:9], q=2-31, 8192 kb/s, 60 fps, 240 tbr, 1k tbn, 1k tbc
  Stream #0:1: Audio: aac (LC) ([10][0][0][0] / 0x000A), 48000 Hz, stereo, fltp, 131 kb/s
Stream mapping:
  Stream #0:0 -> #0:0 (copy)
  Stream #0:1 -> #0:1 (copy)
Press [q] to stop, [?] for help
frame=    1 fps=0.0 q=-1.0 size=       0kB time=00:00:00.00 bitrate=N/A speed=N/A    frame= 5290 fps=0.0 q=-1.0 size=   34560kB time=00:01:28.04 bitrate=3215.7kbits/s speed= 176x    frame=10551 fps=10542 q=-1.0 size=   69376kB time=00:02:55.62 bitrate=3236.1kbits/s speed= 175x    frame=12969 fps=8638 q=-1.0 size=  109568kB time=00:03:35.90 bitrate=4157.3kbits/s speed= 144x    frame=15360 fps=7674 q=-1.0 size=  148992kB time=00:04:15.74 bitrate=4772.6kbits/s speed= 128x    frame=17819 fps=7122 q=-1.0 size=  190208kB time=00:04:56.67 bitrate=5252.1kbits/s speed= 119x    frame=20289 fps=6758 q=-1.0 size=  230912kB time=00:05:37.84 bitrate=5599.1kbits/s speed= 113x    frame=22587 fps=6448 q=-1.0 size=  269056kB time=00:06:16.09 bitrate=5860.6kbits/s speed= 107x    frame=25001 fps=6245 q=-1.0 size=  308992kB time=00:06:56.30 bitrate=6080.2kbits/s speed= 104x    frame=27495 fps=6105 q=-1.0 size=  350208kB time=00:07:37.85 bitrate=6266.0kbits/s speed= 102x    frame=29903 fps=5976 q=-1.0 size=  390144kB time=00:08:17.94 bitrate=6418.5kbits/s speed=99.5x    frame=32396 fps=5886 q=-1.0 size=  431360kB time=00:08:59.49 bitrate=6550.0kbits/s speed=  98x    frame=34752 fps=5786 q=-1.0 size=  470528kB time=00:09:38.69 bitrate=6660.8kbits/s speed=96.3x    frame=37065 fps=5697 q=-1.0 size=  508672kB time=00:10:17.24 bitrate=6751.0kbits/s speed=94.9x    frame=39402 fps=5623 q=-1.0 size=  547584kB time=00:10:56.17 bitrate=6836.3kbits/s speed=93.6x    frame=41752 fps=5561 q=-1.0 size=  586496kB time=00:11:35.28 bitrate=6910.2kbits/s speed=92.6x    frame=44216 fps=5520 q=-1.0 size=  627200kB time=00:12:16.33 bitrate=6977.9kbits/s speed=91.9x    frame=46691 fps=5487 q=-1.0 size=  668160kB time=00:12:57.57 bitrate=7039.3kbits/s speed=91.4x    frame=49216 fps=5462 q=-1.0 size=  705280kB time=00:13:39.59 bitrate=7049.4kbits/s speed=  91x    frame=51768 fps=5443 q=-1.0 size=  747776kB time=00:14:22.11 bitrate=7105.5kbits/s speed=90.6x    frame=54251 fps=5419 q=-1.0 size=  788992kB time=00:15:03.49 bitrate=7153.8kbits/s speed=90.2x    frame=56517 fps=5377 q=-1.0 size=  826368kB time=00:15:41.21 bitrate=7192.4kbits/s speed=89.5x    frame=58956 fps=5354 q=-1.0 size=  866816kB time=00:16:21.85 bitrate=7232.2kbits/s speed=89.2x    frame=61435 fps=5336 q=-1.0 size=  907776kB time=00:17:03.13 bitrate=7268.4kbits/s speed=88.9x    frame=63884 fps=5318 q=-1.0 size=  948480kB time=00:17:43.93 bitrate=7303.0kbits/s speed=88.6x    frame=66307 fps=5299 q=-1.0 size=  988672kB time=00:18:24.29 bitrate=7334.3kbits/s speed=88.2x    frame=68547 fps=5267 q=-1.0 size= 1025792kB time=00:19:01.61 bitrate=7360.9kbits/s speed=87.7x    frame=70930 fps=5249 q=-1.0 size= 1064960kB time=00:19:41.26 bitrate=7385.4kbits/s speed=87.4x    frame=73337 fps=5233 q=-1.0 size= 1105152kB time=00:20:21.37 bitrate=7412.5kbits/s speed=87.2x    frame=75718 fps=5217 q=-1.0 size= 1144320kB time=00:21:01.02 bitrate=7433.9kbits/s speed=86.9x    frame=78107 fps=5202 q=-1.0 size= 1184000kB time=00:21:40.80 bitrate=7456.4kbits/s speed=86.6x    frame=80545 fps=5192 q=-1.0 size= 1224448kB time=00:22:21.39 bitrate=7477.8kbits/s speed=86.5x    frame=82926 fps=5178 q=-1.0 size= 1263872kB time=00:23:01.00 bitrate=7497.2kbits/s speed=86.2x    frame=85400 fps=5171 q=-1.0 size= 1304832kB time=00:23:42.21 bitrate=7515.9kbits/s speed=86.1x    frame=88711 fps=5213 q=-1.0 size= 1342464kB time=00:24:37.34 bitrate=7444.1kbits/s speed=86.8x    frame=95465 fps=5450 q=-1.0 size= 1382400kB time=00:26:29.69 bitrate=7123.8kbits/s speed=90.8x    frame=106789 fps=5928 q=-1.0 size= 1416704kB time=00:29:38.25 bitrate=6526.4kbits/s speed=98.7x    frame=109040 fps=5889 q=-1.0 size= 1454080kB time=00:30:15.71 bitrate=6560.4kbits/s speed=98.1x    frame=111536 fps=5865 q=-1.0 size= 1494016kB time=00:30:57.25 bitrate=6589.8kbits/s speed=97.7x    frame=114096 fps=5846 q=-1.0 size= 1536000kB time=00:31:39.86 bitrate=6623.1kbits/s speed=97.3x    frame=116705 fps=5830 q=-1.0 size= 1576448kB time=00:32:23.30 bitrate=6645.5kbits/s speed=97.1x    frame=119218 fps=5811 q=-1.0 size= 1617920kB time=00:33:05.12 bitrate=6676.7kbits/s speed=96.8x    frame=121589 fps=5785 q=-1.0 size= 1657088kB time=00:33:44.63 bitrate=6704.8kbits/s speed=96.3x    frame=124037 fps=5764 q=-1.0 size= 1697536kB time=00:34:25.37 bitrate=6733.0kbits/s speed=  96x    frame=126538 fps=5747 q=-1.0 size= 1738496kB time=00:35:07.01 bitrate=6759.2kbits/s speed=95.7x    frame=128852 fps=5722 q=-1.0 size= 1775104kB time=00:35:45.60 bitrate=6777.4kbits/s speed=95.3x    frame=131329 fps=5705 q=-1.0 size= 1815808kB time=00:36:26.83 bitrate=6802.1kbits/s speed=  95x    frame=133810 fps=5689 q=-1.0 size= 1857024kB time=00:37:08.15 bitrate=6827.5kbits/s speed=94.7x    frame=136042 fps=5664 q=-1.0 size= 1893888kB time=00:37:45.35 bitrate=6848.7kbits/s speed=94.3x    frame=138665 fps=5655 q=-1.0 size= 1935616kB time=00:38:29.04 bitrate=6867.2kbits/s speed=94.2x    frame=141167 fps=5642 q=-1.0 size= 1976064kB time=00:39:10.70 bitrate=6886.4kbits/s speed=  94x    frame=143707 fps=5631 q=-1.0 size= 2018304kB time=00:39:52.95 bitrate=6909.4kbits/s speed=93.8x    frame=146219 fps=5619 q=-1.0 size= 2059776kB time=00:40:34.81 bitrate=6930.2kbits/s speed=93.6x    frame=148604 fps=5603 q=-1.0 size= 2099456kB time=00:41:14.54 bitrate=6950.3kbits/s speed=93.3x    frame=151133 fps=5593 q=-1.0 size= 2138624kB time=00:41:56.63 bitrate=6961.5kbits/s speed=93.1x    frame=153673 fps=5584 q=-1.0 size= 2180608kB time=00:42:38.89 bitrate=6981.0kbits/s speed=  93x    frame=155967 fps=5566 q=-1.0 size= 2218496kB time=00:43:17.10 bitrate=6997.8kbits/s speed=92.7x    frame=158396 fps=5554 q=-1.0 size= 2258944kB time=00:43:57.53 bitrate=7016.1kbits/s speed=92.5x    frame=160911 fps=5545 q=-1.0 size= 2300672kB time=00:44:39.42 bitrate=7034.0kbits/s speed=92.3x    frame=163205 fps=5528 q=-1.0 size= 2338560kB time=00:45:17.63 bitrate=7049.3kbits/s speed=92.1x    frame=166071 fps=5532 q=-1.0 size= 2380544kB time=00:46:05.34 bitrate=7052.1kbits/s speed=92.1x    frame=169120 fps=5540 q=-1.0 size= 2421504kB time=00:46:56.07 bitrate=7044.2kbits/s speed=92.3x    frame=171744 fps=5536 q=-1.0 size= 2461184kB time=00:47:39.75 bitrate=7050.3kbits/s speed=92.2x    frame=174325 fps=5530 q=-1.0 size= 2501120kB time=00:48:22.74 bitrate=7058.5kbits/s speed=92.1x    frame=176970 fps=5526 q=-1.0 size= 2541312kB time=00:49:06.76 bitrate=7064.9kbits/s speed=  92x    frame=179449 fps=5517 q=-1.0 size= 2582528kB time=00:49:48.03 bitrate=7080.3kbits/s speed=91.9x    frame=182282 fps=5519 q=-1.0 size= 2624512kB time=00:50:35.19 bitrate=7083.6kbits/s speed=91.9x    frame=185249 fps=5525 q=-1.0 size= 2665728kB time=00:51:24.57 bitrate=7079.6kbits/s speed=  92x    frame=187724 fps=5517 q=-1.0 size= 2706688kB time=00:52:05.80 bitrate=7093.6kbits/s speed=91.9x    frame=190314 fps=5512 q=-1.0 size= 2749184kB time=00:52:48.87 bitrate=7107.0kbits/s speed=91.8x    frame=192774 fps=5503 q=-1.0 size= 2790400kB time=00:53:29.84 bitrate=7121.5kbits/s speed=91.6x    frame=195348 fps=5498 q=-1.0 size= 2832640kB time=00:54:12.69 bitrate=7134.1kbits/s speed=91.5x    frame=197885 fps=5492 q=-1.0 size= 2871296kB time=00:54:54.91 bitrate=7138.8kbits/s speed=91.5x    frame=200431 fps=5487 q=-1.0 size= 2909696kB time=00:55:37.27 bitrate=7142.4kbits/s speed=91.4x    frame=203331 fps=5491 q=-1.0 size= 2950400kB time=00:56:25.57 bitrate=7139.0kbits/s speed=91.4x    frame=205610 fps=5478 q=-1.0 size= 2988544kB time=00:57:03.50 bitrate=7151.2kbits/s speed=91.2x    frame=208092 fps=5471 q=-1.0 size= 3029248kB time=00:57:44.83 bitrate=7162.1kbits/s speed=91.1x    frame=210691 fps=5468 q=-1.0 size= 3072256kB time=00:58:28.09 bitrate=7174.2kbits/s speed=  91x    frame=213167 fps=5461 q=-1.0 size= 3109632kB time=00:59:09.31 bitrate=7177.2kbits/s speed=90.9x    frame=215870 fps=5460 q=-1.0 size= 3151616kB time=00:59:54.32 bitrate=7183.0kbits/s speed=90.9x    frame=218766 fps=5464 q=-1.0 size= 3192832kB time=01:00:42.50 bitrate=7180.7kbits/s speed=  91x    frame=221056 fps=5454 q=-1.0 size= 3230208kB time=01:01:20.65 bitrate=7189.4kbits/s speed=90.8x    frame=223553 fps=5448 q=-1.0 size= 3271936kB time=01:02:02.23 bitrate=7201.0kbits/s speed=90.7x    frame=225836 fps=5437 q=-1.0 size= 3309312kB time=01:02:40.24 bitrate=7209.6kbits/s speed=90.5x    frame=228106 fps=5426 q=-1.0 size= 3346944kB time=01:03:18.00 bitrate=7219.1kbits/s speed=90.4x    frame=231207 fps=5435 q=-1.0 size= 3389184kB time=01:04:09.68 bitrate=7212.1kbits/s speed=90.5x    frame=234211 fps=5442 q=-1.0 size= 3426304kB time=01:04:59.68 bitrate=7197.6kbits/s speed=90.6x    frame=236646 fps=5436 q=-1.0 size= 3466496kB time=01:05:40.21 bitrate=7207.1kbits/s speed=90.5x    frame=239175 fps=5431 q=-1.0 size= 3508224kB time=01:06:22.32 bitrate=7216.7kbits/s speed=90.4x    frame=241454 fps=5421 q=-1.0 size= 3546368kB time=01:07:00.28 bitrate=7226.3kbits/s speed=90.3x    frame=244167 fps=5422 q=-1.0 size= 3587584kB time=01:07:45.46 bitrate=7229.1kbits/s speed=90.3x    frame=246896 fps=5422 q=-1.0 size= 3629056kB time=01:08:30.88 bitrate=7231.8kbits/s speed=90.3x    frame=249504 fps=5420 q=-1.0 size= 3668736kB time=01:09:14.30 bitrate=7234.5kbits/s speed=90.2x    frame=251954 fps=5414 q=-1.0 size= 3709440kB time=01:09:55.05 bitrate=7243.7kbits/s speed=90.1x    frame=254241 fps=5405 q=-1.0 size= 3747328kB time=01:10:33.13 bitrate=7251.9kbits/s speed=  90x    frame=256651 fps=5399 q=-1.0 size= 3787520kB time=01:11:13.27 bitrate=7260.8kbits/s speed=89.9x    frame=259146 fps=5395 q=-1.0 size= 3828480kB time=01:11:54.80 bitrate=7268.7kbits/s speed=89.8x    frame=261251 fps=5382 q=-1.0 size= 3863296kB time=01:12:29.88 bitrate=7275.6kbits/s speed=89.6x    frame=264082 fps=5385 q=-1.0 size= 3905792kB time=01:13:16.96 bitrate=7276.9kbits/s speed=89.7x    frame=266731 fps=5384 q=-1.0 size= 3946496kB time=01:14:01.05 bitrate=7279.7kbits/s speed=89.6x    frame=269371 fps=5383 q=-1.0 size= 3986944kB time=01:14:45.00 bitrate=7282.3kbits/s speed=89.6x    frame=271914 fps=5380 q=-1.0 size= 4029184kB time=01:15:27.35 bitrate=7290.6kbits/s speed=89.6x    frame=274291 fps=5374 q=-1.0 size= 4068608kB time=01:16:06.92 bitrate=7298.1kbits/s speed=89.5x    frame=276889 fps=5372 q=-1.0 size= 4108032kB time=01:16:50.18 bitrate=7299.7kbits/s speed=89.4x    frame=279696 fps=5375 q=-1.0 size= 4150528kB time=01:17:36.92 bitrate=7301.2kbits/s speed=89.5x    frame=282206 fps=5371 q=-1.0 size= 4187904kB time=01:18:18.71 bitrate=7301.4kbits/s speed=89.4x    frame=284701 fps=5368 q=-1.0 size= 4229376kB time=01:19:00.23 bitrate=7309.1kbits/s speed=89.4x    frame=287257 fps=5365 q=-1.0 size= 4271616kB time=01:19:42.77 bitrate=7316.5kbits/s speed=89.3x    frame=289497 fps=5357 q=-1.0 size= 4308736kB time=01:20:20.09 bitrate=7322.9kbits/s speed=89.2x    frame=292087 fps=5355 q=-1.0 size= 4351488kB time=01:21:03.20 bitrate=7330.0kbits/s speed=89.2x    frame=294890 fps=5357 q=-1.0 size= 4391936kB time=01:21:49.90 bitrate=7327.8kbits/s speed=89.2x    frame=297494 fps=5356 q=-1.0 size= 4430592kB time=01:22:33.22 bitrate=7327.6kbits/s speed=89.2x    frame=299957 fps=5352 q=-1.0 size= 4471040kB time=01:23:14.21 bitrate=7333.8kbits/s speed=89.1x    frame=302247 fps=5345 q=-1.0 size= 4509184kB time=01:23:52.33 bitrate=7340.4kbits/s speed=  89x    frame=304597 fps=5340 q=-1.0 size= 4547584kB time=01:24:31.43 bitrate=7345.8kbits/s speed=88.9x    frame=307127 fps=5337 q=-1.0 size= 4589568kB time=01:25:13.51 bitrate=7352.6kbits/s speed=88.9x    frame=309328 fps=5329 q=-1.0 size= 4625920kB time=01:25:50.16 bitrate=7358.1kbits/s speed=88.7x    frame=311768 fps=5325 q=-1.0 size= 4662784kB time=01:26:30.78 bitrate=7358.7kbits/s speed=88.7x    frame=314498 fps=5326 q=-1.0 size= 4702976kB time=01:27:16.22 bitrate=7357.7kbits/s speed=88.7x    frame=317184 fps=5327 q=-1.0 size= 4740608kB time=01:28:00.91 bitrate=7353.8kbits/s speed=88.7x    frame=319682 fps=5324 q=-1.0 size= 4781568kB time=01:28:42.53 bitrate=7359.4kbits/s speed=88.6x    frame=322112 fps=5320 q=-1.0 size= 4821760kB time=01:29:22.97 bitrate=7365.3kbits/s speed=88.6x    frame=324855 fps=5321 q=-1.0 size= 4859648kB time=01:30:08.65 bitrate=7360.5kbits/s speed=88.6x    frame=327413 fps=5320 q=-1.0 size= 4898048kB time=01:30:51.27 bitrate=7360.6kbits/s speed=88.6x    frame=330126 fps=5321 q=-1.0 size= 4935424kB time=01:31:36.41 bitrate=7355.9kbits/s speed=88.6x    frame=332501 fps=5316 q=-1.0 size= 4974592kB time=01:32:15.99 bitrate=7361.3kbits/s speed=88.5x    frame=334914 fps=5312 q=-1.0 size= 5014784kB time=01:32:56.18 bitrate=7367.2kbits/s speed=88.4x    frame=337111 fps=5305 q=-1.0 size= 5051136kB time=01:33:32.75 bitrate=7372.3kbits/s speed=88.3x    frame=339536 fps=5301 q=-1.0 size= 5091328kB time=01:34:13.15 bitrate=7377.9kbits/s speed=88.3x    frame=341979 fps=5298 q=-1.0 size= 5132032kB time=01:34:53.79 bitrate=7383.8kbits/s speed=88.2x    frame=344390 fps=5294 q=-1.0 size= 5171712kB time=01:35:33.97 bitrate=7388.7kbits/s speed=88.1x    frame=346904 fps=5292 q=-1.0 size= 5213184kB time=01:36:15.82 bitrate=7394.0kbits/s speed=88.1x    frame=349208 fps=5287 q=-1.0 size= 5251328kB time=01:36:54.19 bitrate=7398.9kbits/s speed=  88x    frame=351691 fps=5285 q=-1.0 size= 5292544kB time=01:37:35.52 bitrate=7404.4kbits/s speed=  88x    frame=354160 fps=5282 q=-1.0 size= 5333504kB time=01:38:16.66 bitrate=7409.6kbits/s speed=87.9x    frame=356389 fps=5276 q=-1.0 size= 5370368kB time=01:38:53.75 bitrate=7414.2kbits/s speed=87.8x    frame=358825 fps=5273 q=-1.0 size= 5410560kB time=01:39:34.30 bitrate=7419.0kbits/s speed=87.8x    frame=361618 fps=5275 q=-1.0 size= 5452032kB time=01:40:20.79 bitrate=7418.1kbits/s speed=87.8x    frame=364152 fps=5274 q=-1.0 size= 5489664kB time=01:41:02.98 bitrate=7417.4kbits/s speed=87.8x    frame=366873 fps=5275 q=-1.0 size= 5530112kB time=01:41:48.26 bitrate=7416.6kbits/s speed=87.8x    frame=369234 fps=5271 q=-1.0 size= 5569536kB time=01:42:27.53 bitrate=7421.8kbits/s speed=87.8x    frame=371607 fps=5267 q=-1.0 size= 5608704kB time=01:43:07.06 bitrate=7426.2kbits/s speed=87.7x    frame=374053 fps=5264 q=-1.0 size= 5649152kB time=01:43:47.79 bitrate=7430.9kbits/s speed=87.7x    frame=376257 fps=5258 q=-1.0 size= 5685760kB time=01:44:24.48 bitrate=7435.2kbits/s speed=87.5x    frame=378558 fps=5254 q=-1.0 size= 5723648kB time=01:45:02.82 bitrate=7439.2kbits/s speed=87.5x    frame=381403 fps=5257 q=-1.0 size= 5764608kB time=01:45:50.15 bitrate=7436.6kbits/s speed=87.5x    frame=384891 fps=5268 q=-1.0 size= 5804032kB time=01:46:48.24 bitrate=7419.6kbits/s speed=87.7x    frame=387360 fps=5266 q=-1.0 size= 5844736kB time=01:47:29.36 bitrate=7424.0kbits/s speed=87.7x    frame=389554 fps=5260 q=-1.0 size= 5881088kB time=01:48:05.89 bitrate=7428.1kbits/s speed=87.6x    frame=391728 fps=5254 q=-1.0 size= 5917184kB time=01:48:42.12 bitrate=7432.2kbits/s speed=87.5x    frame=394196 fps=5252 q=-1.0 size= 5958144kB time=01:49:23.22 bitrate=7436.8kbits/s speed=87.4x    frame=396569 fps=5249 q=-1.0 size= 5997056kB time=01:50:02.74 bitrate=7440.5kbits/s speed=87.4x    frame=398839 fps=5244 q=-1.0 size= 6034944kB time=01:50:40.52 bitrate=7444.9kbits/s speed=87.3x    frame=401267 fps=5241 q=-1.0 size= 6075136kB time=01:51:20.98 bitrate=7449.1kbits/s speed=87.3x    frame=403630 fps=5238 q=-1.0 size= 6114304kB time=01:52:00.29 bitrate=7453.3kbits/s speed=87.2x    frame=406114 fps=5236 q=-1.0 size= 6155264kB time=01:52:41.69 bitrate=7457.3kbits/s speed=87.2x    frame=408466 fps=5233 q=-1.0 size= 6194432kB time=01:53:20.81 bitrate=7461.6kbits/s speed=87.1x    frame=410644 fps=5227 q=-1.0 size= 6230272kB time=01:53:57.11 bitrate=7464.9kbits/s speed=  87x    frame=413049 fps=5224 q=-1.0 size= 6270208kB time=01:54:37.13 bitrate=7469.0kbits/s speed=  87x    frame=415439 fps=5222 q=-1.0 size= 6309632kB time=01:55:16.92 bitrate=7472.8kbits/s speed=86.9x    frame=417806 fps=5219 q=-1.0 size= 6345472kB time=01:55:56.33 bitrate=7472.6kbits/s speed=86.9x    frame=420773 fps=5223 q=-1.0 size= 6388480kB time=01:56:45.72 bitrate=7470.2kbits/s speed=  87x    frame=423625 fps=5226 q=-1.0 size= 6428672kB time=01:57:33.21 bitrate=7466.6kbits/s speed=  87x    frame=426101 fps=5224 q=-1.0 size= 6469632kB time=01:58:14.45 bitrate=7470.5kbits/s speed=  87x    frame=428560 fps=5222 q=-1.0 size= 6510336kB time=01:58:55.38 bitrate=7474.4kbits/s speed=  87x    frame=430793 fps=5218 q=-1.0 size= 6547456kB time=01:59:32.56 bitrate=7478.0kbits/s speed=86.9x    frame=433240 fps=5216 q=-1.0 size= 6587904kB time=02:00:13.27 bitrate=7481.8kbits/s speed=86.8x    frame=435699 fps=5214 q=-1.0 size= 6628608kB time=02:00:54.19 bitrate=7485.5kbits/s speed=86.8x    frame=437897 fps=5209 q=-1.0 size= 6664960kB time=02:01:30.73 bitrate=7488.9kbits/s speed=86.7x    frame=440501 fps=5209 q=-1.0 size= 6708224kB time=02:02:14.14 bitrate=7492.9kbits/s speed=86.7x    frame=442907 fps=5207 q=-1.0 size= 6748160kB time=02:02:54.16 bitrate=7496.6kbits/s speed=86.7x    frame=445246 fps=5204 q=-1.0 size= 6786816kB time=02:03:33.15 bitrate=7499.9kbits/s speed=86.6x    frame=447686 fps=5202 q=-1.0 size= 6827264kB time=02:04:13.79 bitrate=7503.4kbits/s speed=86.6x    frame=450009 fps=5199 q=-1.0 size= 6865664kB time=02:04:52.48 bitrate=7506.7kbits/s speed=86.6x    frame=452413 fps=5196 q=-1.0 size= 6905344kB time=02:05:32.51 bitrate=7509.9kbits/s speed=86.5x    frame=454935 fps=5195 q=-1.0 size= 6947072kB time=02:06:14.52 bitrate=7513.4kbits/s speed=86.5x    frame=457624 fps=5196 q=-1.0 size= 6985728kB time=02:06:59.32 bitrate=7510.8kbits/s speed=86.5x    frame=460586 fps=5201 q=-1.0 size= 7028480kB time=02:07:48.64 bitrate=7508.1kbits/s speed=86.6x    frame=463101 fps=5200 q=-1.0 size= 7069696kB time=02:08:30.50 bitrate=7511.2kbits/s speed=86.6x    frame=465362 fps=5196 q=-1.0 size= 7107328kB time=02:09:08.12 bitrate=7514.5kbits/s speed=86.5x    frame=467836 fps=5194 q=-1.0 size= 7148288kB time=02:09:49.32 bitrate=7517.8kbits/s speed=86.5x    frame=470217 fps=5192 q=-1.0 size= 7187968kB time=02:10:28.95 bitrate=7521.3kbits/s speed=86.4x    frame=472558 fps=5189 q=-1.0 size= 7226624kB time=02:11:07.95 bitrate=7524.3kbits/s speed=86.4x    frame=475041 fps=5188 q=-1.0 size= 7267328kB time=02:11:49.32 bitrate=7527.1kbits/s speed=86.4x    frame=477272 fps=5184 q=-1.0 size= 7304448kB time=02:12:26.48 bitrate=7530.1kbits/s speed=86.3x    frame=479612 fps=5181 q=-1.0 size= 7343360kB time=02:13:05.43 bitrate=7533.3kbits/s speed=86.3x    frame=482032 fps=5179 q=-1.0 size= 7383296kB time=02:13:45.75 bitrate=7536.2kbits/s speed=86.2x    frame=484216 fps=5175 q=-1.0 size= 7419392kB time=02:14:22.10 bitrate=7538.9kbits/s speed=86.2x    frame=487061 fps=5178 q=-1.0 size= 7460864kB time=02:15:09.46 bitrate=7536.8kbits/s speed=86.2x    frame=489988 fps=5181 q=-1.0 size= 7501056kB time=02:15:58.19 bitrate=7532.1kbits/s speed=86.3x    frame=492207 fps=5177 q=-1.0 size= 7537920kB time=02:16:35.14 bitrate=7535.0kbits/s speed=86.2x    frame=494730 fps=5176 q=-1.0 size= 7579392kB time=02:17:17.11 bitrate=7537.9kbits/s speed=86.2x    frame=497070 fps=5174 q=-1.0 size= 7618048kB time=02:17:56.07 bitrate=7540.7kbits/s speed=86.1x    frame=499448 fps=5172 q=-1.0 size= 7657472kB time=02:18:35.66 bitrate=7543.6kbits/s speed=86.1x    frame=501975 fps=5171 q=-1.0 size= 7699456kB time=02:19:17.72 bitrate=7546.8kbits/s speed=86.1x    frame=504276 fps=5168 q=-1.0 size= 7737344kB time=02:19:56.03 bitrate=7549.3kbits/s speed=  86x    frame=506804 fps=5167 q=-1.0 size= 7779328kB time=02:20:38.10 bitrate=7552.4kbits/s speed=  86x    frame=509418 fps=5168 q=-1.0 size= 7822592kB time=02:21:21.62 bitrate=7555.5kbits/s speed=  86x    frame=512006 fps=5168 q=-1.0 size= 7865344kB time=02:22:04.67 bitrate=7558.4kbits/s speed=  86x    frame=515331 fps=5175 q=-1.0 size= 7916288kB time=02:23:00.06 bitrate=7558.2kbits/s speed=86.2x    frame=518562 fps=5182 q=-1.0 size= 7963648kB time=02:23:53.88 bitrate=7556.1kbits/s speed=86.3x    frame=521614 fps=5186 q=-1.0 size= 8014336kB time=02:24:44.69 bitrate=7559.7kbits/s speed=86.3x    frame=524606 fps=5190 q=-1.0 size= 8063744kB time=02:25:34.53 bitrate=7562.9kbits/s speed=86.4x    frame=526859 fps=5187 q=-1.0 size= 8101120kB time=02:26:12.04 bitrate=7565.4kbits/s speed=86.4x    frame=529298 fps=5185 q=-1.0 size= 8141568kB time=02:26:52.62 bitrate=7568.2kbits/s speed=86.3x    frame=532206 fps=5188 q=-1.0 size= 8183296kB time=02:27:41.05 bitrate=7565.4kbits/s speed=86.4x    frame=534936 fps=5190 q=-1.0 size= 8220160kB time=02:28:26.52 bitrate=7560.7kbits/s speed=86.4x    frame=537327 fps=5188 q=-1.0 size= 8259840kB time=02:29:06.33 bitrate=7563.4kbits/s speed=86.4x    frame=539719 fps=5186 q=-1.0 size= 8299264kB time=02:29:46.15 bitrate=7565.8kbits/s speed=86.3x    frame=542217 fps=5185 q=-1.0 size= 8340480kB time=02:30:27.72 bitrate=7568.4kbits/s speed=86.3x    frame=544727 fps=5184 q=-1.0 size= 8382208kB time=02:31:09.51 bitrate=7571.2kbits/s speed=86.3x    frame=547223 fps=5183 q=-1.0 size= 8423680kB time=02:31:51.08 bitrate=7573.9kbits/s speed=86.3x    frame=549761 fps=5182 q=-1.0 size= 8465664kB time=02:32:33.37 bitrate=7576.5kbits/s speed=86.3x    frame=552280 fps=5182 q=-1.0 size= 8507136kB time=02:33:15.29 bitrate=7578.9kbits/s speed=86.3x    frame=554480 fps=5178 q=-1.0 size= 8543744kB time=02:33:51.92 bitrate=7581.3kbits/s speed=86.2x    frame=556847 fps=5176 q=-1.0 size= 8582912kB time=02:34:31.30 bitrate=7583.7kbits/s speed=86.2x    frame=559191 fps=5174 q=-1.0 size= 8621824kB time=02:35:10.29 bitrate=7586.2kbits/s speed=86.1x    frame=561538 fps=5171 q=-1.0 size= 8660480kB time=02:35:49.39 bitrate=7588.4kbits/s speed=86.1x    frame=563956 fps=5170 q=-1.0 size= 8700672kB time=02:36:29.63 bitrate=7590.9kbits/s speed=86.1x    frame=566613 fps=5170 q=-1.0 size= 8739840kB time=02:37:13.86 bitrate=7589.3kbits/s speed=86.1x    frame=569327 fps=5171 q=-1.0 size= 8781312kB time=02:37:59.06 bitrate=7589.0kbits/s speed=86.1x    frame=572198 fps=5174 q=-1.0 size= 8821248kB time=02:38:46.84 bitrate=7585.3kbits/s speed=86.1x    frame=574557 fps=5172 q=-1.0 size= 8860416kB time=02:39:26.12 bitrate=7587.7kbits/s speed=86.1x    frame=576942 fps=5170 q=-1.0 size= 8900096kB time=02:40:05.83 bitrate=7590.1kbits/s speed=86.1x    frame=579371 fps=5169 q=-1.0 size= 8940288kB time=02:40:46.26 bitrate=7592.5kbits/s speed=86.1x    frame=581829 fps=5168 q=-1.0 size= 8980736kB time=02:41:27.15 bitrate=7594.6kbits/s speed=  86x    frame=584453 fps=5168 q=-1.0 size= 9024512kB time=02:42:10.86 bitrate=7597.4kbits/s speed=  86x    frame=586887 fps=5167 q=-1.0 size= 9064704kB time=02:42:51.41 bitrate=7599.5kbits/s speed=  86x    frame=589157 fps=5164 q=-1.0 size= 9102080kB time=02:43:29.17 bitrate=7601.5kbits/s speed=  86x    frame=591677 fps=5163 q=-1.0 size= 9144064kB time=02:44:11.13 bitrate=7604.0kbits/s speed=  86x    frame=594329 fps=5164 q=-1.0 size= 9185536kB time=02:44:55.27 bitrate=7604.4kbits/s speed=  86x    frame=597661 fps=5170 q=-1.0 size= 9228544kB time=02:45:50.75 bitrate=7597.4kbits/s speed=86.1x    frame=600251 fps=5170 q=-1.0 size= 9271296kB time=02:46:33.83 bitrate=7599.7kbits/s speed=86.1x    frame=602432 fps=5167 q=-1.0 size= 9307392kB time=02:47:10.17 bitrate=7601.7kbits/s speed=  86x    frame=604979 fps=5167 q=-1.0 size= 9349632kB time=02:47:52.58 bitrate=7604.0kbits/s speed=  86x    frame=607497 fps=5166 q=-1.0 size= 9391360kB time=02:48:34.51 bitrate=7606.3kbits/s speed=  86x    frame=609761 fps=5163 q=-1.0 size= 9428736kB time=02:49:12.18 bitrate=7608.2kbits/s speed=  86x    frame=612206 fps=5162 q=-1.0 size= 9469440kB time=02:49:52.87 bitrate=7610.6kbits/s speed=85.9x    frame=614638 fps=5161 q=-1.0 size= 9509376kB time=02:50:33.39 bitrate=7612.4kbits/s speed=85.9x    frame=617180 fps=5160 q=-1.0 size= 9551616kB time=02:51:15.69 bitrate=7614.8kbits/s speed=85.9x    frame=619721 fps=5160 q=-1.0 size= 9593600kB time=02:51:57.97 bitrate=7616.9kbits/s speed=85.9x    frame=622043 fps=5158 q=-1.0 size= 9632000kB time=02:52:36.62 bitrate=7618.8kbits/s speed=85.9x    frame=624482 fps=5157 q=-1.0 size= 9672192kB time=02:53:17.26 bitrate=7620.7kbits/s speed=85.9x    frame=627323 fps=5159 q=-1.0 size= 9714432kB time=02:54:04.52 bitrate=7619.4kbits/s speed=85.9x    frame=629839 fps=5158 q=-1.0 size= 9750784kB time=02:54:46.45 bitrate=7617.3kbits/s speed=85.9x    frame=632249 fps=5157 q=-1.0 size= 9790976kB time=02:55:26.56 bitrate=7619.5kbits/s speed=85.9x    frame=634804 fps=5157 q=-1.0 size= 9833216kB time=02:56:09.12 bitrate=7621.6kbits/s speed=85.9x    frame=637300 fps=5156 q=-1.0 size= 9874432kB time=02:56:50.71 bitrate=7623.6kbits/s speed=85.8x    frame=639820 fps=5156 q=-1.0 size= 9915904kB time=02:57:32.66 bitrate=7625.4kbits/s speed=85.8x    frame=642323 fps=5155 q=-1.0 size= 9957376kB time=02:58:14.34 bitrate=7627.5kbits/s speed=85.8x    frame=644891 fps=5155 q=-1.0 size=10000128kB time=02:58:57.06 bitrate=7629.7kbits/s speed=85.8x    frame=647511 fps=5155 q=-1.0 size=10043392kB time=02:59:40.68 bitrate=7631.7kbits/s speed=85.8x    frame=649912 fps=5154 q=-1.0 size=10083328kB time=03:00:20.66 bitrate=7633.8kbits/s speed=85.8x    frame=652455 fps=5154 q=-1.0 size=10125312kB time=03:01:02.99 bitrate=7635.7kbits/s speed=85.8x    frame=655022 fps=5154 q=-1.0 size=10167808kB time=03:01:45.72 bitrate=7637.7kbits/s speed=85.8x    frame=657235 fps=5151 q=-1.0 size=10204672kB time=03:02:22.56 bitrate=7639.6kbits/s speed=85.8x    frame=660075 fps=5153 q=-1.0 size=10246912kB time=03:03:09.84 bitrate=7638.2kbits/s speed=85.8x    frame=663195 fps=5157 q=-1.0 size=10288640kB time=03:04:01.77 bitrate=7633.2kbits/s speed=85.9x    frame=665484 fps=5155 q=-1.0 size=10326272kB time=03:04:39.92 bitrate=7634.8kbits/s speed=85.8x    frame=668039 fps=5155 q=-1.0 size=10368512kB time=03:05:22.44 bitrate=7636.7kbits/s speed=85.8x    frame=670442 fps=5153 q=-1.0 size=10408448kB time=03:06:02.42 bitrate=7638.7kbits/s speed=85.8x    frame=672958 fps=5153 q=-1.0 size=10450176kB time=03:06:44.31 bitrate=7640.6kbits/s speed=85.8x    frame=675491 fps=5152 q=-1.0 size=10491904kB time=03:07:26.48 bitrate=7642.4kbits/s speed=85.8x    frame=677774 fps=5150 q=-1.0 size=10530048kB time=03:08:04.47 bitrate=7644.3kbits/s speed=85.7x    frame=680315 fps=5150 q=-1.0 size=10571776kB time=03:08:46.78 bitrate=7645.9kbits/s speed=85.7x    frame=682800 fps=5149 q=-1.0 size=10612992kB time=03:09:28.16 bitrate=7647.8kbits/s speed=85.7x    frame=685063 fps=5147 q=-1.0 size=10650880kB time=03:10:05.84 bitrate=7649.8kbits/s speed=85.7x    frame=687576 fps=5146 q=-1.0 size=10692352kB time=03:10:47.67 bitrate=7651.5kbits/s speed=85.7x    frame=690081 fps=5146 q=-1.0 size=10733824kB time=03:11:29.37 bitrate=7653.3kbits/s speed=85.7x    frame=692608 fps=5145 q=-1.0 size=10775296kB time=03:12:11.41 bitrate=7654.8kbits/s speed=85.7x    frame=695538 fps=5148 q=-1.0 size=10818304kB time=03:13:00.21 bitrate=7653.0kbits/s speed=85.7x    frame=698213 fps=5149 q=-1.0 size=10857728kB time=03:13:44.75 bitrate=7651.5kbits/s speed=85.7x    frame=700661 fps=5148 q=-1.0 size=10898176kB time=03:14:25.56 bitrate=7653.1kbits/s speed=85.7x    frame=703125 fps=5147 q=-1.0 size=10939136kB time=03:15:06.59 bitrate=7654.9kbits/s speed=85.7x    frame=705326 fps=5144 q=-1.0 size=10975488kB time=03:15:43.21 bitrate=7656.4kbits/s speed=85.6x    frame=707849 fps=5144 q=-1.0 size=11017216kB time=03:16:25.19 bitrate=7658.2kbits/s speed=85.6x    frame=710389 fps=5144 q=-1.0 size=11059200kB time=03:17:07.50 bitrate=7659.9kbits/s speed=85.6x    frame=712724 fps=5142 q=-1.0 size=11097600kB time=03:17:46.35 bitrate=7661.3kbits/s speed=85.6x    frame=715279 fps=5142 q=-1.0 size=11140096kB time=03:18:28.85 bitrate=7663.2kbits/s speed=85.6x    frame=717904 fps=5142 q=-1.0 size=11179776kB time=03:19:12.57 bitrate=7662.3kbits/s speed=85.6x    frame=720620 fps=5143 q=-1.0 size=11220224kB time=03:19:57.79 bitrate=7661.1kbits/s speed=85.6x    frame=723079 fps=5142 q=-1.0 size=11260928kB time=03:20:38.73 bitrate=7662.7kbits/s speed=85.6x    frame=725319 fps=5140 q=-1.0 size=11297792kB time=03:21:15.98 bitrate=7664.1kbits/s speed=85.6x    frame=727753 fps=5139 q=-1.0 size=11338240kB time=03:21:56.50 bitrate=7665.8kbits/s speed=85.6x    frame=730213 fps=5138 q=-1.0 size=11378944kB time=03:22:37.46 bitrate=7667.4kbits/s speed=85.5x    frame=732327 fps=5135 q=-1.0 size=11414016kB time=03:23:12.70 bitrate=7668.8kbits/s speed=85.5x    frame=734764 fps=5134 q=-1.0 size=11454464kB time=03:23:53.29 bitrate=7670.5kbits/s speed=85.5x    frame=737157 fps=5133 q=-1.0 size=11493888kB time=03:24:33.13 bitrate=7671.9kbits/s speed=85.5x    frame=739577 fps=5132 q=-1.0 size=11534080kB time=03:25:13.44 bitrate=7673.5kbits/s speed=85.4x    frame=742007 fps=5131 q=-1.0 size=11574272kB time=03:25:53.88 bitrate=7675.0kbits/s speed=85.4x    frame=744247 fps=5129 q=-1.0 size=11611392kB time=03:26:31.16 bitrate=7676.5kbits/s speed=85.4x    frame=746667 fps=5128 q=-1.0 size=11651584kB time=03:27:11.48 bitrate=7678.1kbits/s speed=85.4x    frame=749364 fps=5129 q=-1.0 size=11692544kB time=03:27:56.40 bitrate=7677.3kbits/s speed=85.4x    frame=751927 fps=5129 q=-1.0 size=11728384kB time=03:28:39.05 bitrate=7674.6kbits/s speed=85.4x    frame=754355 fps=5128 q=-1.0 size=11768576kB time=03:29:19.50 bitrate=7676.1kbits/s speed=85.4x    frame=756829 fps=5127 q=-1.0 size=11809536kB time=03:30:00.69 bitrate=7677.6kbits/s speed=85.4x    frame=759017 fps=5124 q=-1.0 size=11846144kB time=03:30:37.07 bitrate=7679.3kbits/s speed=85.3x    frame=761500 fps=5124 q=-1.0 size=11887104kB time=03:31:18.43 bitrate=7680.7kbits/s speed=85.3x    frame=763801 fps=5122 q=-1.0 size=11925248kB time=03:31:56.76 bitrate=7682.1kbits/s speed=85.3x    frame=766218 fps=5121 q=-1.0 size=11965184kB time=03:32:36.97 bitrate=7683.5kbits/s speed=85.3x    frame=768622 fps=5120 q=-1.0 size=12004864kB time=03:33:16.99 bitrate=7684.9kbits/s speed=85.2x    frame=770903 fps=5118 q=-1.0 size=12042752kB time=03:33:54.94 bitrate=7686.4kbits/s speed=85.2x    frame=773267 fps=5117 q=-1.0 size=12081920kB time=03:34:34.29 bitrate=7687.8kbits/s speed=85.2x    frame=776152 fps=5119 q=-1.0 size=12119296kB time=03:35:22.34 bitrate=7682.9kbits/s speed=85.2x    frame=779013 fps=5121 q=-1.0 size=12158464kB time=03:36:09.97 bitrate=7679.4kbits/s speed=85.3x    frame=781417 fps=5120 q=-1.0 size=12198144kB time=03:36:50.03 bitrate=7680.8kbits/s speed=85.2x    frame=783750 fps=5119 q=-1.0 size=12237056kB time=03:37:28.88 bitrate=7682.3kbits/s speed=85.2x    frame=786181 fps=5118 q=-1.0 size=12277248kB time=03:38:09.36 bitrate=7683.7kbits/s speed=85.2x    frame=788613 fps=5117 q=-1.0 size=12317440kB time=03:38:49.85 bitrate=7685.1kbits/s speed=85.2x    frame=790712 fps=5114 q=-1.0 size=12352256kB time=03:39:24.82 bitrate=7686.4kbits/s speed=85.1x    frame=793153 fps=5113 q=-1.0 size=12392448kB time=03:40:05.46 bitrate=7687.6kbits/s speed=85.1x    frame=795433 fps=5111 q=-1.0 size=12430336kB time=03:40:43.37 bitrate=7689.1kbits/s speed=85.1x    frame=798132 fps=5112 q=-1.0 size=12467200kB time=03:41:28.36 bitrate=7685.8kbits/s speed=85.1x    frame=801053 fps=5115 q=-1.0 size=12507136kB time=03:42:17.02 bitrate=7682.3kbits/s speed=85.2x    frame=803291 fps=5113 q=-1.0 size=12544000kB time=03:42:54.27 bitrate=7683.4kbits/s speed=85.1x    frame=805674 fps=5111 q=-1.0 size=12583680kB time=03:43:33.96 bitrate=7684.9kbits/s speed=85.1x    frame=808490 fps=5113 q=-1.0 size=12624384kB time=03:44:20.84 bitrate=7682.9kbits/s speed=85.1x    frame=811355 fps=5115 q=-1.0 size=12665344kB time=03:45:08.56 bitrate=7680.6kbits/s speed=85.2x    frame=813923 fps=5115 q=-1.0 size=12705536kB time=03:45:51.33 bitrate=7680.7kbits/s speed=85.2x    frame=816274 fps=5114 q=-1.0 size=12744448kB time=03:46:30.45 bitrate=7682.0kbits/s speed=85.1x    frame=818455 fps=5111 q=-1.0 size=12780544kB time=03:47:06.76 bitrate=7683.3kbits/s speed=85.1x    frame=820875 fps=5111 q=-1.0 size=12820992kB time=03:47:47.10 bitrate=7684.8kbits/s speed=85.1x    frame=823234 fps=5109 q=-1.0 size=12860160kB time=03:48:26.36 bitrate=7686.2kbits/s speed=85.1x    frame=825627 fps=5108 q=-1.0 size=12899584kB time=03:49:06.18 bitrate=7687.5kbits/s speed=  85x    frame=828074 fps=5108 q=-1.0 size=12940032kB time=03:49:46.93 bitrate=7688.8kbits/s speed=  85x    frame=830745 fps=5108 q=-1.0 size=12979200kB time=03:50:31.42 bitrate=7687.2kbits/s speed=85.1x    frame=833274 fps=5108 q=-1.0 size=13020672kB time=03:51:13.52 bitrate=7688.4kbits/s speed=  85x    frame=836690 fps=5113 q=-1.0 size=13060864kB time=03:52:10.40 bitrate=7680.7kbits/s speed=85.1x    frame=839014 fps=5112 q=-1.0 size=13099264kB time=03:52:49.12 bitrate=7681.9kbits/s speed=85.1x    frame=841102 fps=5109 q=-1.0 size=13134080kB time=03:53:23.88 bitrate=7683.2kbits/s speed=85.1x    frame=843523 fps=5108 q=-1.0 size=13173760kB time=03:54:04.23 bitrate=7684.3kbits/s speed=85.1x    frame=845981 fps=5108 q=-1.0 size=13214464kB time=03:54:45.15 bitrate=7685.6kbits/s speed=  85x    frame=848414 fps=5107 q=-1.0 size=13254912kB time=03:55:25.67 bitrate=7687.0kbits/s speed=  85x    frame=850812 fps=5106 q=-1.0 size=13294592kB time=03:56:05.60 bitrate=7688.3kbits/s speed=  85x    frame=853267 fps=5105 q=-1.0 size=13335040kB time=03:56:46.51 bitrate=7689.5kbits/s speed=  85x    frame=855671 fps=5105 q=-1.0 size=13374976kB time=03:57:26.51 bitrate=7690.8kbits/s speed=  85x    frame=858327 fps=5105 q=-1.0 size=13411328kB time=03:58:10.73 bitrate=7687.9kbits/s speed=  85x    frame=861020 fps=5106 q=-1.0 size=13453824kB time=03:58:55.60 bitrate=7688.1kbits/s speed=  85x    frame=863895 fps=5108 q=-1.0 size=13494784kB time=03:59:43.44 bitrate=7685.9kbits/s speed=  85x    frame=865990 fps=5105 q=-1.0 size=13529344kB time=04:00:18.32 bitrate=7686.9kbits/s speed=  85x    frame=868454 fps=5105 q=-1.0 size=13570304kB time=04:00:59.33 bitrate=7688.3kbits/s speed=  85x    frame=870909 fps=5104 q=-1.0 size=13610752kB time=04:01:40.24 bitrate=7689.5kbits/s speed=  85x    frame=873435 fps=5104 q=-1.0 size=13653248kB time=04:02:22.29 bitrate=7691.2kbits/s speed=  85x    frame=875992 fps=5104 q=-1.0 size=13695232kB time=04:03:04.83 bitrate=7692.3kbits/s speed=  85x    frame=878328 fps=5103 q=-1.0 size=13733888kB time=04:03:43.75 bitrate=7693.5kbits/s speed=  85x    frame=880815 fps=5102 q=-1.0 size=13775360kB time=04:04:25.10 bitrate=7695.0kbits/s speed=  85x    frame=883947 fps=5106 q=-1.0 size=13819136kB time=04:05:17.26 bitrate=7692.1kbits/s speed=  85x    frame=886940 fps=5108 q=-1.0 size=13858048kB time=04:06:07.07 bitrate=7687.7kbits/s speed=  85x    frame=889510 fps=5108 q=-1.0 size=13900288kB time=04:06:49.85 bitrate=7688.9kbits/s speed=  85x    frame=891959 fps=5108 q=-1.0 size=13940992kB time=04:07:30.61 bitrate=7690.2kbits/s speed=  85x    frame=894256 fps=5106 q=-1.0 size=13978624kB time=04:08:08.88 bitrate=7691.2kbits/s speed=  85x    frame=896795 fps=5106 q=-1.0 size=14020864kB time=04:08:51.13 bitrate=7692.6kbits/s speed=  85x    frame=899179 fps=5105 q=-1.0 size=14060288kB time=04:09:30.86 bitrate=7693.7kbits/s speed=  85x    frame=901473 fps=5104 q=-1.0 size=14098432kB time=04:10:09.01 bitrate=7695.0kbits/s speed=  85x    frame=904060 fps=5104 q=-1.0 size=14141184kB time=04:10:52.11 bitrate=7696.2kbits/s speed=  85x    frame=906721 fps=5104 q=-1.0 size=14179840kB time=04:11:36.42 bitrate=7694.6kbits/s speed=  85x    frame=909984 fps=5108 q=-1.0 size=14222592kB time=04:12:30.70 bitrate=7690.2kbits/s speed=85.1x    frame=912407 fps=5108 q=-1.0 size=14262784kB time=04:13:11.05 bitrate=7691.4kbits/s speed=  85x    frame=914682 fps=5106 q=-1.0 size=14300416kB time=04:13:48.95 bitrate=7692.5kbits/s speed=  85x    frame=917225 fps=5106 q=-1.0 size=14342400kB time=04:14:31.29 bitrate=7693.7kbits/s speed=  85x    frame=919710 fps=5106 q=-1.0 size=14383616kB time=04:15:12.69 bitrate=7695.0kbits/s speed=  85x    frame=921769 fps=5103 q=-1.0 size=14417920kB time=04:15:46.94 bitrate=7696.1kbits/s speed=  85x    frame=923988 fps=5101 q=-1.0 size=14454272kB time=04:16:23.92 bitrate=7697.0kbits/s speed=84.9x    frame=926151 fps=5099 q=-1.0 size=14490368kB time=04:16:59.96 bitrate=7698.1kbits/s speed=84.9x    frame=928391 fps=5097 q=-1.0 size=14527488kB time=04:17:37.25 bitrate=7699.2kbits/s speed=84.9x    frame=930743 fps=5096 q=-1.0 size=14566144kB time=04:18:16.38 bitrate=7700.2kbits/s speed=84.8x    frame=933358 fps=5096 q=-1.0 size=14609664kB time=04:18:59.90 bitrate=7701.6kbits/s speed=84.9x    frame=935520 fps=5094 q=-1.0 size=14645760kB time=04:19:35.91 bitrate=7702.8kbits/s speed=84.8x    frame=938121 fps=5095 q=-1.0 size=14688512kB time=04:20:19.23 bitrate=7703.9kbits/s speed=84.8x    frame=940579 fps=5094 q=-1.0 size=14729472kB time=04:21:00.15 bitrate=7705.1kbits/s speed=84.8x    frame=943259 fps=5095 q=-1.0 size=14768384kB time=04:21:44.74 bitrate=7703.6kbits/s speed=84.8x    frame=946540 fps=5099 q=-1.0 size=14812160kB time=04:22:39.38 bitrate=7699.6kbits/s speed=84.9x    frame=948976 fps=5098 q=-1.0 size=14852352kB time=04:23:19.93 bitrate=7700.7kbits/s speed=84.9x    frame=951497 fps=5098 q=-1.0 size=14894080kB time=04:24:01.86 bitrate=7701.9kbits/s speed=84.9x    frame=954060 fps=5098 q=-1.0 size=14936576kB time=04:24:44.56 bitrate=7703.1kbits/s speed=84.9x    frame=956522 fps=5098 q=-1.0 size=14977280kB time=04:25:25.50 bitrate=7704.2kbits/s speed=84.9x    frame=959143 fps=5098 q=-1.0 size=15020800kB time=04:26:09.16 bitrate=7705.5kbits/s speed=84.9x    frame=961721 fps=5098 q=-1.0 size=15063296kB time=04:26:52.07 bitrate=7706.6kbits/s speed=84.9x    frame=963983 fps=5097 q=-1.0 size=15100928kB time=04:27:29.71 bitrate=7707.7kbits/s speed=84.9x    frame=966556 fps=5097 q=-1.0 size=15143424kB time=04:28:12.57 bitrate=7708.8kbits/s speed=84.9x    frame=969099 fps=5097 q=-1.0 size=15185408kB time=04:28:54.89 bitrate=7709.9kbits/s speed=84.9x    frame=971651 fps=5097 q=-1.0 size=15227648kB time=04:29:37.39 bitrate=7711.1kbits/s speed=84.9x    frame=974215 fps=5097 q=-1.0 size=15270144kB time=04:30:20.07 bitrate=7712.2kbits/s speed=84.9x    frame=976870 fps=5097 q=-1.0 size=15309312kB time=04:31:04.27 bitrate=7711.0kbits/s speed=84.9x    frame=979915 fps=5100 q=-1.0 size=15352064kB time=04:31:54.95 bitrate=7708.5kbits/s speed=84.9x    frame=982373 fps=5099 q=-1.0 size=15392768kB time=04:32:35.83 bitrate=7709.6kbits/s speed=84.9x    frame=984871 fps=5099 q=-1.0 size=15433984kB time=04:33:17.47 bitrate=7710.7kbits/s speed=84.9x    frame=987376 fps=5099 q=-1.0 size=15475200kB time=04:33:59.20 bitrate=7711.6kbits/s speed=84.9x    frame=989789 fps=5098 q=-1.0 size=15515392kB time=04:34:39.37 bitrate=7712.8kbits/s speed=84.9x    frame=992276 fps=5098 q=-1.0 size=15556608kB time=04:35:20.78 bitrate=7713.9kbits/s speed=84.9x    frame=994556 fps=5096 q=-1.0 size=15594240kB time=04:35:58.73 bitrate=7714.8kbits/s speed=84.9x    frame=997033 fps=5096 q=-1.0 size=15635200kB time=04:36:39.95 bitrate=7715.9kbits/s speed=84.8x    frame=999971 fps=5098 q=-1.0 size=15679744kB time=04:37:28.93 bitrate=7715.1kbits/s speed=84.9x    frame=1002876 fps=5100 q=-1.0 size=15720704kB time=04:38:17.27 bitrate=7712.9kbits/s speed=84.9x    frame=1005159 fps=5098 q=-1.0 size=15758336kB time=04:38:55.27 bitrate=7713.8kbits/s speed=84.9x    frame=1007719 fps=5098 q=-1.0 size=15800576kB time=04:39:37.89 bitrate=7714.8kbits/s speed=84.9x    frame=1010310 fps=5099 q=-1.0 size=15843840kB time=04:40:21.00 bitrate=7716.1kbits/s speed=84.9x    frame=1012541 fps=5097 q=-1.0 size=15880448kB time=04:40:58.16 bitrate=7716.9kbits/s speed=84.9x    frame=1015148 fps=5097 q=-1.0 size=15923712kB time=04:41:41.57 bitrate=7718.0kbits/s speed=84.9x    frame=1017506 fps=5096 q=-1.0 size=15963136kB time=04:42:20.83 bitrate=7719.2kbits/s speed=84.9x    frame=1019813 fps=5095 q=-1.0 size=16001024kB time=04:42:59.26 bitrate=7720.0kbits/s speed=84.8x    frame=1022337 fps=5095 q=-1.0 size=16042752kB time=04:43:41.29 bitrate=7721.0kbits/s speed=84.8x    frame=1025047 fps=5096 q=-1.0 size=16081408kB time=04:44:26.40 bitrate=7719.2kbits/s speed=84.8x    frame=1027803 fps=5097 q=-1.0 size=16120576kB time=04:45:12.32 bitrate=7717.2kbits/s speed=84.9x    frame=1030232 fps=5096 q=-1.0 size=16161024kB time=04:45:52.77 bitrate=7718.4kbits/s speed=84.8x    frame=1032443 fps=5095 q=-1.0 size=16197376kB time=04:46:29.54 bitrate=7719.2kbits/s speed=84.8x    frame=1034945 fps=5094 q=-1.0 size=16238848kB time=04:47:11.22 bitrate=7720.2kbits/s speed=84.8x    frame=1037312 fps=5093 q=-1.0 size=16278016kB time=04:47:50.62 bitrate=7721.2kbits/s speed=84.8x    frame=1039567 fps=5092 q=-1.0 size=16315392kB time=04:48:28.14 bitrate=7722.1kbits/s speed=84.8x    frame=1042018 fps=5092 q=-1.0 size=16355840kB time=04:49:08.96 bitrate=7723.1kbits/s speed=84.8x    frame=1044357 fps=5091 q=-1.0 size=16394496kB time=04:49:47.87 bitrate=7724.0kbits/s speed=84.8x    frame=1046597 fps=5089 q=-1.0 size=16431872kB time=04:50:25.18 bitrate=7725.0kbits/s speed=84.7x    frame=1049083 fps=5089 q=-1.0 size=16472832kB time=04:51:06.57 bitrate=7725.9kbits/s speed=84.7x    frame=1051415 fps=5088 q=-1.0 size=16511488kB time=04:51:45.37 bitrate=7726.9kbits/s speed=84.7x    frame=1053838 fps=5087 q=-1.0 size=16551424kB time=04:52:25.73 bitrate=7727.8kbits/s speed=84.7x    frame=1056267 fps=5087 q=-1.0 size=16591872kB time=04:53:06.22 bitrate=7728.8kbits/s speed=84.7x    frame=1058838 fps=5087 q=-1.0 size=16630272kB time=04:53:49.01 bitrate=7727.9kbits/s speed=84.7x    frame=1061684 fps=5088 q=-1.0 size=16670720kB time=04:54:36.40 bitrate=7725.9kbits/s speed=84.7x    frame=1064044 fps=5087 q=-1.0 size=16709888kB time=04:55:15.69 bitrate=7726.9kbits/s speed=84.7x    frame=1066414 fps=5086 q=-1.0 size=16748800kB time=04:55:55.12 bitrate=7727.7kbits/s speed=84.7x    frame=1068809 fps=5086 q=-1.0 size=16788736kB time=04:56:35.00 bitrate=7728.8kbits/s speed=84.7x    frame=1071067 fps=5084 q=-1.0 size=16825856kB time=04:57:12.56 bitrate=7729.5kbits/s speed=84.7x    frame=1073414 fps=5083 q=-1.0 size=16864768kB time=04:57:51.61 bitrate=7730.5kbits/s speed=84.6x    frame=1075777 fps=5083 q=-1.0 size=16904192kB time=04:58:30.99 bitrate=7731.5kbits/s speed=84.6x    frame=1078126 fps=5082 q=-1.0 size=16942848kB time=04:59:10.09 bitrate=7732.3kbits/s speed=84.6x    frame=1080782 fps=5082 q=-1.0 size=16982784kB time=04:59:54.30 bitrate=7731.5kbits/s speed=84.6x    frame=1083512 fps=5083 q=-1.0 size=17023488kB time=05:00:39.75 bitrate=7730.5kbits/s speed=84.6x    frame=1085627 fps=5081 q=-1.0 size=17058560kB time=05:01:14.94 bitrate=7731.4kbits/s speed=84.6x    frame=1088046 fps=5080 q=-1.0 size=17098496kB time=05:01:55.21 bitrate=7732.2kbits/s speed=84.6x    frame=1090342 fps=5079 q=-1.0 size=17136640kB time=05:02:33.47 bitrate=7733.1kbits/s speed=84.6x    frame=1092542 fps=5078 q=-1.0 size=17172992kB time=05:03:10.13 bitrate=7733.9kbits/s speed=84.5x    frame=1094999 fps=5077 q=-1.0 size=17213952kB time=05:03:51.02 bitrate=7735.0kbits/s speed=84.5x    frame=1097275 fps=5076 q=-1.0 size=17251840kB time=05:04:28.90 bitrate=7735.9kbits/s speed=84.5x    frame=1099659 fps=5075 q=-1.0 size=17291008kB time=05:05:08.62 bitrate=7736.7kbits/s speed=84.5x    frame=1102101 fps=5075 q=-1.0 size=17331200kB time=05:05:49.30 bitrate=7737.5kbits/s speed=84.5x    frame=1104238 fps=5073 q=-1.0 size=17367040kB time=05:06:24.87 bitrate=7738.5kbits/s speed=84.5x    frame=1106668 fps=5073 q=-1.0 size=17406976kB time=05:07:05.38 bitrate=7739.2kbits/s speed=84.5x    frame=1109008 fps=5072 q=-1.0 size=17445888kB time=05:07:44.36 bitrate=7740.1kbits/s speed=84.4x    frame=1111433 fps=5071 q=-1.0 size=17486080kB time=05:08:24.71 bitrate=7741.1kbits/s speed=84.4x    frame=1113875 fps=5071 q=-1.0 size=17526272kB time=05:09:05.39 bitrate=7741.8kbits/s speed=84.4x    frame=1116234 fps=5070 q=-1.0 size=17564416kB time=05:09:44.68 bitrate=7742.3kbits/s speed=84.4x    frame=1118979 fps=5071 q=-1.0 size=17603328kB time=05:10:30.42 bitrate=7740.4kbits/s speed=84.4x    frame=1121716 fps=5072 q=-1.0 size=17643776kB time=05:11:15.99 bitrate=7739.2kbits/s speed=84.4x    frame=1123836 fps=5070 q=-1.0 size=17678848kB time=05:11:51.28 bitrate=7740.0kbits/s speed=84.4x    frame=1126204 fps=5069 q=-1.0 size=17718016kB time=05:12:30.74 bitrate=7740.8kbits/s speed=84.4x    frame=1128606 fps=5069 q=-1.0 size=17757696kB time=05:13:10.75 bitrate=7741.6kbits/s speed=84.4x    frame=1131155 fps=5069 q=-1.0 size=17799936kB time=05:13:53.15 bitrate=7742.6kbits/s speed=84.4x    frame=1133660 fps=5068 q=-1.0 size=17841408kB time=05:14:34.90 bitrate=7743.4kbits/s speed=84.4x    frame=1136115 fps=5068 q=-1.0 size=17882112kB time=05:15:15.77 bitrate=7744.3kbits/s speed=84.4x    frame=1138466 fps=5067 q=-1.0 size=17921024kB time=05:15:54.92 bitrate=7745.2kbits/s speed=84.4x    frame=1140988 fps=5067 q=-1.0 size=17962752kB time=05:16:36.90 bitrate=7746.0kbits/s speed=84.4x    frame=1143333 fps=5066 q=-1.0 size=18001664kB time=05:17:15.94 bitrate=7746.9kbits/s speed=84.4x    frame=1145807 fps=5066 q=-1.0 size=18042880kB time=05:17:57.12 bitrate=7747.9kbits/s speed=84.3x    frame=1148299 fps=5066 q=-1.0 size=18083840kB time=05:18:38.63 bitrate=7748.6kbits/s speed=84.3x    frame=1150889 fps=5066 q=-1.0 size=18121216kB time=05:19:21.75 bitrate=7747.2kbits/s speed=84.3x    frame=1154066 fps=5069 q=-1.0 size=18163968kB time=05:20:14.60 bitrate=7744.1kbits/s speed=84.4x    frame=1156626 fps=5069 q=-1.0 size=18206464kB time=05:20:57.24 bitrate=7745.0kbits/s speed=84.4x    frame=1158850 fps=5068 q=-1.0 size=18243328kB time=05:21:34.27 bitrate=7745.8kbits/s speed=84.4x    frame=1161413 fps=5068 q=-1.0 size=18285824kB time=05:22:16.93 bitrate=7746.7kbits/s speed=84.4x    frame=1163731 fps=5067 q=-1.0 size=18323968kB time=05:22:55.51 bitrate=7747.4kbits/s speed=84.4x    frame=1166075 fps=5066 q=-1.0 size=18362880kB time=05:23:34.48 bitrate=7748.3kbits/s speed=84.3x    frame=1168536 fps=5066 q=-1.0 size=18403584kB time=05:24:15.47 bitrate=7749.1kbits/s speed=84.3x    frame=1170866 fps=5065 q=-1.0 size=18441984kB time=05:24:54.25 bitrate=7749.8kbits/s speed=84.3x    frame=1173263 fps=5064 q=-1.0 size=18482176kB time=05:25:34.18 bitrate=7750.8kbits/s speed=84.3x    frame=1175758 fps=5064 q=-1.0 size=18522880kB time=05:26:15.72 bitrate=7751.4kbits/s speed=84.3x    frame=1177957 fps=5063 q=-1.0 size=18559744kB time=05:26:52.35 bitrate=7752.3kbits/s speed=84.3x    frame=1180449 fps=5062 q=-1.0 size=18600960kB time=05:27:33.85 bitrate=7753.1kbits/s speed=84.3x    frame=1183166 fps=5063 q=-1.0 size=18640896kB time=05:28:19.09 bitrate=7751.9kbits/s speed=84.3x    frame=1185899 fps=5064 q=-1.0 size=18680320kB time=05:29:04.56 bitrate=7750.4kbits/s speed=84.3x    frame=1188335 fps=5064 q=-1.0 size=18720768kB time=05:29:45.13 bitrate=7751.3kbits/s speed=84.3x    frame=1190675 fps=5063 q=-1.0 size=18759424kB time=05:30:24.08 bitrate=7752.0kbits/s speed=84.3x    frame=1193053 fps=5062 q=-1.0 size=18798592kB time=05:31:03.69 bitrate=7752.7kbits/s speed=84.3x    frame=1195541 fps=5062 q=-1.0 size=18839808kB time=05:31:45.14 bitrate=7753.6kbits/s speed=84.3x    frame=1197795 fps=5061 q=-1.0 size=18876928kB time=05:32:22.67 bitrate=7754.2kbits/s speed=84.3x    frame=1200381 fps=5061 q=-1.0 size=18917888kB time=05:33:05.72 bitrate=7754.3kbits/s speed=84.3x    frame=1204899 fps=5069 q=-1.0 size=18958080kB time=05:34:20.96 bitrate=7741.6kbits/s speed=84.4x    frame=1208312 fps=5073 q=-1.0 size=18998528kB time=05:35:17.80 bitrate=7736.2kbits/s speed=84.5x    frame=1210767 fps=5073 q=-1.0 size=19039232kB time=05:35:58.69 bitrate=7737.1kbits/s speed=84.5x    frame=1213219 fps=5072 q=-1.0 size=19079936kB time=05:36:39.54 bitrate=7737.9kbits/s speed=84.5x    frame=1215710 fps=5072 q=-1.0 size=19119872kB time=05:37:21.04 bitrate=7738.2kbits/s speed=84.4x    frame=1218259 fps=5072 q=-1.0 size=19162112kB time=05:38:03.45 bitrate=7739.1kbits/s speed=84.4x    frame=1220577 fps=5071 q=-1.0 size=19200512kB time=05:38:42.07 bitrate=7739.9kbits/s speed=84.4x    frame=1223010 fps=5071 q=-1.0 size=19240960kB time=05:39:22.59 bitrate=7740.8kbits/s speed=84.4x    frame=1225487 fps=5071 q=-1.0 size=19281920kB time=05:40:03.85 bitrate=7741.5kbits/s speed=84.4x    frame=1227827 fps=5070 q=-1.0 size=19320576kB time=05:40:42.83 bitrate=7742.3kbits/s speed=84.4x    frame=1230124 fps=5069 q=-1.0 size=19358976kB time=05:41:21.10 bitrate=7743.2kbits/s speed=84.4x    frame=1232652 fps=5069 q=-1.0 size=19400704kB time=05:42:03.19 bitrate=7744.0kbits/s speed=84.4x    frame=1235154 fps=5069 q=-1.0 size=19442176kB time=05:42:44.81 bitrate=7744.8kbits/s speed=84.4x    frame=1237524 fps=5068 q=-1.0 size=19481344kB time=05:43:24.32 bitrate=7745.5kbits/s speed=84.4x    frame=1240029 fps=5068 q=-1.0 size=19522816kB time=05:44:06.06 bitrate=7746.3kbits/s speed=84.4x    frame=1242460 fps=5067 q=-1.0 size=19563008kB time=05:44:46.53 bitrate=7747.1kbits/s speed=84.4x    frame=1244864 fps=5067 q=-1.0 size=19602944kB time=05:45:26.55 bitrate=7747.9kbits/s speed=84.4x    frame=1247397 fps=5067 q=-1.0 size=19644928kB time=05:46:08.76 bitrate=7748.7kbits/s speed=84.4x    frame=1249684 fps=5066 q=-1.0 size=19682816kB time=05:46:46.84 bitrate=7749.5kbits/s speed=84.3x    frame=1252198 fps=5066 q=-1.0 size=19724288kB time=05:47:28.70 bitrate=7750.2kbits/s speed=84.3x    frame=1254677 fps=5065 q=-1.0 size=19765504kB time=05:48:09.97 bitrate=7751.0kbits/s speed=84.3x    frame=1257181 fps=5065 q=-1.0 size=19806976kB time=05:48:51.68 bitrate=7751.8kbits/s speed=84.3x    frame=1259736 fps=5065 q=-1.0 size=19849216kB time=05:49:34.18 bitrate=7752.6kbits/s speed=84.3x    frame=1262480 fps=5066 q=-1.0 size=19890688kB time=05:50:19.90 bitrate=7751.9kbits/s speed=84.4x    frame=1264938 fps=5066 q=-1.0 size=19931392kB time=05:51:00.84 bitrate=7752.7kbits/s speed=84.3x    frame=1267435 fps=5066 q=-1.0 size=19972608kB time=05:51:42.44 bitrate=7753.4kbits/s speed=84.3x    frame=1269826 fps=5065 q=-1.0 size=20012544kB time=05:52:22.26 bitrate=7754.3kbits/s speed=84.3x    frame=1272327 fps=5065 q=-1.0 size=20053760kB time=05:53:03.92 bitrate=7755.0kbits/s speed=84.3x    frame=1274785 fps=5065 q=-1.0 size=20094720kB time=05:53:44.85 bitrate=7755.8kbits/s speed=84.3x    frame=1277138 fps=5064 q=-1.0 size=20133632kB time=05:54:24.04 bitrate=7756.5kbits/s speed=84.3x    frame=1279595 fps=5064 q=-1.0 size=20174336kB time=05:55:05.00 bitrate=7757.2kbits/s speed=84.3x    frame=1282164 fps=5064 q=-1.0 size=20216832kB time=05:55:47.79 bitrate=7758.0kbits/s speed=84.3x    frame=1284475 fps=5063 q=-1.0 size=20254976kB time=05:56:26.25 bitrate=7758.7kbits/s speed=84.3x    frame=1286968 fps=5063 q=-1.0 size=20296448kB time=05:57:07.81 bitrate=7759.5kbits/s speed=84.3x    frame=1289296 fps=5062 q=-1.0 size=20335104kB time=05:57:46.58 bitrate=7760.2kbits/s speed=84.3x    frame=1291828 fps=5062 q=-1.0 size=20376832kB time=05:58:28.75 bitrate=7760.9kbits/s speed=84.3x    frame=1294480 fps=5062 q=-1.0 size=20416256kB time=05:59:12.90 bitrate=7760.0kbits/s speed=84.3x    frame=1299969 fps=5074 q=-1.0 size=20454144kB time=06:00:44.26 bitrate=7741.6kbits/s speed=84.5x    frame=1307424 fps=5093 q=-1.0 size=20492544kB time=06:02:48.35 bitrate=7711.9kbits/s speed=84.8x    frame=1313532 fps=5107 q=-1.0 Lsize=20530534kB time=06:04:30.03 bitrate=7690.3kbits/s speed=  85x    
video:20139819kB audio:346735kB subtitle:0kB other streams:0kB global headers:0kB muxing overhead: 0.214676%
